<svg xmlns="http://www.w3.org/2000/svg" width="100px" height="23px" viewBox="0 0 272.654 63.219"><path fill="#FFFFFF" d="M75.211 40.696V0H60.285v43.903c0 13 7.9 19.3 24.1 19.315c16.186 0 24.055-6.323 24.055-19.315 V0H93.455v40.696c0 5.424-1.088 10.963-9.115 10.963C76.299 51.7 75.2 46.1 75.2 40.696z"/><path fill="#FFFFFF" d="M24.039 0C7.869 0 0 6.3 0 19.319v43.899h14.924v-40.71c0-5.408 1.088-10.945 9.115-10.945 c8.043 0 9.1 5.5 9.1 10.945v40.71h14.924V19.319C48.107 6.3 40.2 0 24 0z"/><path fill="#FFFFFF" d="M120.715 19.319v43.899h14.939v-40.71c0-5.408 1.102-10.945 9.131-10.945c2.547 0 4.9 0.3 6.2 0.5 V0.357C149.02 0.1 146.9 0 144.8 0C128.6 0 120.7 6.3 120.7 19.319z"/><path fill="#FFFFFF" d="M248.602 0c-16.186 0-24.055 6.311-24.055 19.319v43.899h14.939v-40.71c0-5.408 1.072-10.945 9.115-10.945 c8.041 0 9.1 5.5 9.1 10.945v40.71h14.924V19.319C272.654 6.3 264.8 0 248.6 0z"/><path fill="#FFFFFF" d="M177.754 40.696V0h-14.939v43.903c0 13 7.9 19.3 24.1 19.3 c16.197 0 24.068-6.323 24.068-19.315V0h-14.939v40.696c0 5.424-1.088 10.963-9.129 11 C178.842 51.7 177.8 46.1 177.8 40.696z"/></svg>