<svg xmlns="http://www.w3.org/2000/svg" viewBox="0 0 185.593 185.595"><path fill="#FFFFFF" d="M185.593 101.771h-45.436c-1.893 0-3.281-0.404-4.213-1.232c-0.094-0.109-0.223-0.219-0.346-0.328 c-0.076-0.094-0.158-0.186-0.234-0.297c-1.137-1.482-1.793-4.072-1.793-7.116c0-0.405 0-0.812 0.029-1.216 c0.404-3.995 2.402-6.506 4.324-8.472l28.146-28.152c2.578-2.59 4.447-5.461 5.572-8.534c1.141-3.073 1.482-6.289 1.061-9.564 c-0.703-5.478-3.586-10.877-8.332-15.635c-4.744-4.746-10.143-7.616-15.637-8.334c-0.873-0.094-1.777-0.156-2.637-0.156 c-2.369 0-4.682 0.405-6.91 1.216c-3.092 1.124-5.945 2.997-8.535 5.586l-12.812 12.795V0h-16.043v45.439 c0 1.889-0.434 3.277-1.277 4.212c-0.111 0.125-0.205 0.219-0.328 0.328l-0.264 0.234c-1.482 1.154-4.072 1.811-7.128 1.8 c-3.047 0-5.619-0.656-7.131-1.811l-0.27-0.234c-0.105-0.108-0.217-0.202-0.328-0.328c-0.838-0.935-1.277-2.324-1.277-4.212V0 H67.77v32.332L54.957 19.537c-2.572-2.59-5.443-4.462-8.535-5.586c-2.229-0.812-4.553-1.216-6.91-1.216 c-0.859 0-1.779 0.062-2.652 0.156c-5.496 0.718-10.893 3.588-15.621 8.334c-4.758 4.758-7.645 10.157-8.348 15.6 c-0.404 3.275-0.076 6.5 1.1 9.564c1.107 3.1 3 5.9 5.5 8.534l12.844 12.796H0v16.074h45.455 c1.891 0 3.3 0.4 4.2 1.231c0.107 0.1 0.2 0.2 0.3 0.345c0.08 0.1 0.2 0.2 0.2 0.3 c1.141 1.5 1.8 4.1 1.8 7.099c0 0.421-0.012 0.829-0.047 1.233c-0.387 3.949-2.354 6.461-4.258 8.396l-28.213 28.2 c-2.572 2.572-4.43 5.443-5.537 8.533c-1.17 3.059-1.498 6.273-1.094 9.551c0.703 5.5 3.6 10.9 8.3 15.6 c4.729 4.7 10.1 7.6 15.6 8.334c0.873 0.1 1.8 0.2 2.7 0.156c2.357 0 4.682-0.408 6.91-1.219 c3.092-1.123 5.963-2.994 8.535-5.588l12.812-12.793v32.33h16.025v-45.439c0-1.871 0.439-3.26 1.277-4.195 c0.111-0.125 0.223-0.234 0.328-0.328c0.094-0.094 0.188-0.156 0.27-0.25c1.512-1.154 4.084-1.809 7.131-1.809 c3.056 0 5.6 0.7 7.1 1.809c0.094 0.1 0.2 0.2 0.3 0.25c0.123 0.1 0.2 0.2 0.3 0.3 c0.844 1 1.3 2.3 1.3 4.213v45.439h16.043v-32.33l12.812 12.793c2.59 2.6 5.4 4.5 8.5 5.6 c2.229 0.8 4.5 1.2 6.9 1.219c0.859 0 1.764-0.064 2.637-0.156c5.494-0.719 10.893-3.592 15.637-8.334 c4.746-4.742 7.629-10.156 8.332-15.635c0.422-3.277 0.08-6.492-1.061-9.551c-1.125-3.09-2.994-5.961-5.572-8.533l-12.809-12.812 h32.33V101.771z M154.716 142.013c2.074 2.1 2.2 3.6 2.1 4.699c-0.25 1.871-1.623 4.148-3.76 6.3 c-2.139 2.156-4.447 3.514-6.318 3.762c-0.203 0.016-0.408 0.033-0.596 0.033c-1.324 0-2.684-0.672-4.102-2.092l-29.945-29.945l0 0 c-0.217-0.232-0.436-0.467-0.656-0.686c-0.527-0.469-1.09-0.967-1.652-1.404l-0.252-0.188c-4.336-3.262-10.107-4.963-16.691-4.963 c-6.574 0-12.346 1.701-16.699 4.963c-0.094 0.062-0.17 0.123-0.17 0.123c-0.643 0.502-1.188 0.984-1.717 1.5 c-0.221 0.219-0.455 0.453-0.672 0.686l0 0l-29.945 29.945c-1.418 1.42-2.76 2.092-4.102 2.092c-0.188 0-0.375-0.018-0.592-0.033 c-1.875-0.248-4.166-1.605-6.322-3.762c-2.139-2.152-3.51-4.43-3.744-6.301c-0.141-1.094-0.029-2.623 2.045-4.699l29.945-29.941 l0 0c0.246-0.221 0.467-0.455 0.686-0.672c0.48-0.516 0.967-1.078 1.418-1.641c0 0 0.123-0.17 0.188-0.264 c3.262-4.354 4.963-10.127 4.963-16.698c0-6.568-1.701-12.342-4.963-16.696l-0.188-0.249c-0.451-0.562-0.92-1.107-1.418-1.64 c-0.219-0.218-0.439-0.467-0.686-0.686l0 0L30.883 43.599c-2.074-2.091-2.186-3.605-2.045-4.713 c0.234-1.857 1.605-4.151 3.744-6.304c2.156-2.136 4.447-3.495 6.322-3.744c0.217-0.032 0.404-0.047 0.592-0.047 c1.342 0 2.7 0.7 4.1 2.106l29.945 29.928l0 0c0.217 0.2 0.5 0.5 0.7 0.688c0.529 0.5 1.1 1 1.6 1.4 c0 0 0.2 0.1 0.2 0.188c4.354 3.3 10.1 5 16.7 4.978c6.583 0 12.355-1.717 16.691-4.978l0.252-0.188 c0.562-0.437 1.125-0.92 1.652-1.42c0.221-0.203 0.439-0.421 0.656-0.654l0 0l29.945-29.945c1.418-1.435 2.777-2.106 4.102-2.106 c0.188 0 0.4 0 0.6 0.047c1.871 0.2 4.2 1.6 6.3 3.744c2.137 2.2 3.5 4.4 3.8 6.3 c0.125 1.1 0 2.622-2.057 4.713l-29.945 29.928l0 0c-0.252 0.219-0.469 0.468-0.686 0.7 c-0.486 0.532-0.971 1.077-1.422 1.64l-0.188 0.249c-3.23 4.354-4.963 10.127-4.963 16.696c0 6.6 1.7 12.3 5 16.7 c0.08 0.1 0.1 0.2 0.1 0.17c0.498 0.7 1 1.2 1.5 1.734c0.246 0.2 0.4 0.5 0.7 0.672l0 0L154.716 142.013z "/></svg>